<svg xmlns="http://www.w3.org/2000/svg" viewBox="0 0 100 100">
  <g transform="rotate(15 50 50)">
    <!-- Tail Fin -->
    <path d="M 20 46 L 25 30 L 35 30 L 35 46 Z" fill="#e74c3c" stroke="#c0392b" stroke-width="2" stroke-linejoin="round" />
    <!-- Wing Back -->
    <path d="M 45 46 L 40 32 L 55 32 L 55 46 Z" fill="#bdc3c7" stroke="#7f8c8d" stroke-width="2" stroke-linejoin="round" />
    <!-- Body -->
    <path d="M 20 46 L 75 46 C 80 46 85 50 85 50 C 85 50 80 54 75 54 L 20 54 L 10 50 Z" stroke="#c0392b" stroke-width="2" stroke-linejoin="round" fill="#e74c3c" />
    <!-- Wing Front -->
    <path d="M 45 54 L 35 80 L 55 80 L 55 54 Z" fill="#ecf0f1" stroke="#bdc3c7" stroke-width="2" stroke-linejoin="round" />
    <!-- Cockpit -->
    <path d="M 55 46 L 60 40 L 70 40 L 75 46 Z" fill="#2c3e50" />
    <!-- Propeller Center -->
    <ellipse cx="85" cy="50" rx="3" ry="5" fill="#34495e" />
    <!-- Propeller Blades -->
    <path d="M 85 45 L 85 20 A 4 4 0 0 1 89 20 L 85 45 Z" fill="#7f8c8d" />
    <path d="M 85 55 L 85 80 A 4 4 0 0 0 89 80 L 85 55 Z" fill="#7f8c8d" />
  </g>
</svg>
